<svg width="96" height="46" viewBox="0 0 96 46" fill="none" xmlns="http://www.w3.org/2000/svg">
<path d="M39.4999 20.4999C40.3299 21.3299 41.6699 21.3299 42.4999 20.4999L55.4999 7.49994C56.3299 6.66994 56.3299 5.32994 55.4999 4.49994C54.6699 3.66994 53.3299 3.66994 52.4999 4.49994L39.4999 17.4999C38.6699 18.3299 38.6699 19.6699 39.4999 20.4999Z" stroke="#828282" stroke-width="1.5" stroke-linecap="round" stroke-linejoin="round"/>
<path d="M54.01 8.98999L51.01 5.98999" stroke="#828282" stroke-width="1.5" stroke-linecap="round" stroke-linejoin="round"/>
<path d="M44.5 2.44L46 2L45.56 3.5L46 5L44.5 4.56L43 5L43.44 3.5L43 2L44.5 2.44Z" stroke="#828282" stroke-linecap="round" stroke-linejoin="round"/>
<path d="M40.5 8.44L42 8L41.56 9.5L42 11L40.5 10.56L39 11L39.44 9.5L39 8L40.5 8.44Z" stroke="#828282" stroke-linecap="round" stroke-linejoin="round"/>
<path d="M55.5 13.44L57 13L56.56 14.5L57 16L55.5 15.56L54 16L54.44 14.5L54 13L55.5 13.44Z" stroke="#828282" stroke-linecap="round" stroke-linejoin="round"/>
<path d="M38.1328 43L37.3594 40.7559H34.1367L33.3574 43H32.0098L35.0625 34.5449H36.4746L39.5273 43H38.1328ZM35.7012 36.0801L34.4707 39.6543H37.0254L35.8008 36.0801H35.7012ZM40.8809 43V36.6191H42.1348V43H40.8809ZM41.5078 35.5C41.0391 35.5 40.6934 35.166 40.6934 34.7324C40.6934 34.293 41.0391 33.959 41.5078 33.959C41.9766 33.959 42.3223 34.293 42.3223 34.7324C42.3223 35.166 41.9766 35.5 41.5078 35.5ZM52.8867 43L52.1133 40.7559H48.8906L48.1113 43H46.7637L49.8164 34.5449H51.2285L54.2812 43H52.8867ZM50.4551 36.0801L49.2246 39.6543H51.7793L50.5547 36.0801H50.4551ZM55.6113 43V36.6191H56.8242V37.5977H56.918C57.0996 36.9707 57.8086 36.5137 58.6406 36.5137C58.8281 36.5137 59.0684 36.5312 59.2031 36.5664V37.8086C59.0977 37.7734 58.7227 37.7324 58.5 37.7324C57.5449 37.7324 56.8711 38.3359 56.8711 39.2324V43H55.6113ZM61.1895 35.0312H62.4492V36.6484H63.832V37.709H62.4492V40.9902C62.4492 41.6582 62.7246 41.9512 63.3516 41.9512C63.5449 41.9512 63.6562 41.9395 63.832 41.9219V42.9707C63.627 43.0059 63.3926 43.0352 63.1465 43.0352C61.7461 43.0352 61.1895 42.543 61.1895 41.3125V37.709H60.1758V36.6484H61.1895V35.0312Z" fill="#828282"/>
</svg>
