<svg width="96" height="46" viewBox="0 0 96 46" fill="none" xmlns="http://www.w3.org/2000/svg">
<path d="M55.5 7.5L54.01 8.99L51.01 5.99L52.5 4.5C52.92 4.08 53.46 3.88 54 3.88C54.54 3.88 55.08 4.08 55.5 4.5C56.33 5.33 56.33 6.67 55.5 7.5Z" fill="#11E799"/>
<path d="M53.3099 9.69995L42.4999 20.5C41.6699 21.33 40.3299 21.33 39.4999 20.5C38.6699 19.67 38.6699 18.33 39.4999 17.5L50.3099 6.69995L53.3099 9.69995Z" fill="#11E799"/>
<path d="M45.95 3.50002L46.36 2.11002C46.4 1.98002 46.36 1.84002 46.27 1.74002C46.18 1.64002 46.02 1.60002 45.89 1.64002L44.5 2.05002L43.11 1.64002C42.98 1.60002 42.84 1.64002 42.74 1.73002C42.64 1.83002 42.61 1.97002 42.65 2.10002L43.05 3.50002L42.64 4.89002C42.6 5.02002 42.64 5.16002 42.73 5.26002C42.83 5.36002 42.97 5.39002 43.1 5.35002L44.5 4.95002L45.89 5.36002C45.93 5.37002 45.96 5.38002 46 5.38002C46.1 5.38002 46.19 5.34002 46.27 5.27002C46.37 5.17002 46.4 5.03002 46.36 4.90002L45.95 3.50002Z" fill="#11E799"/>
<path d="M41.95 9.50002L42.36 8.11002C42.4 7.98002 42.36 7.84002 42.27 7.74002C42.17 7.64002 42.03 7.61002 41.9 7.65002L40.5 8.05002L39.11 7.64002C38.98 7.60002 38.84 7.64002 38.74 7.73002C38.64 7.83002 38.61 7.97002 38.65 8.10002L39.05 9.50002L38.64 10.89C38.6 11.02 38.64 11.16 38.73 11.26C38.83 11.36 38.97 11.39 39.1 11.35L40.49 10.94L41.88 11.35C41.91 11.36 41.95 11.36 41.99 11.36C42.09 11.36 42.18 11.32 42.26 11.25C42.36 11.15 42.39 11.01 42.35 10.88L41.95 9.50002Z" fill="#11E799"/>
<path d="M56.95 14.5L57.36 13.11C57.4 12.98 57.36 12.84 57.27 12.74C57.17 12.64 57.03 12.61 56.9 12.65L55.51 13.06L54.12 12.65C53.99 12.61 53.85 12.65 53.75 12.74C53.65 12.84 53.62 12.98 53.66 13.11L54.07 14.5L53.66 15.89C53.62 16.02 53.66 16.16 53.75 16.26C53.85 16.36 53.99 16.39 54.12 16.35L55.51 15.94L56.9 16.35C56.93 16.36 56.97 16.36 57.01 16.36C57.11 16.36 57.2 16.32 57.28 16.25C57.38 16.15 57.41 16.01 57.37 15.88L56.95 14.5Z" fill="#11E799"/>
<path d="M38.1328 43L37.3594 40.7559H34.1367L33.3574 43H32.0098L35.0625 34.5449H36.4746L39.5273 43H38.1328ZM35.7012 36.0801L34.4707 39.6543H37.0254L35.8008 36.0801H35.7012ZM40.8809 43V36.6191H42.1348V43H40.8809ZM41.5078 35.5C41.0391 35.5 40.6934 35.166 40.6934 34.7324C40.6934 34.293 41.0391 33.959 41.5078 33.959C41.9766 33.959 42.3223 34.293 42.3223 34.7324C42.3223 35.166 41.9766 35.5 41.5078 35.5ZM52.8867 43L52.1133 40.7559H48.8906L48.1113 43H46.7637L49.8164 34.5449H51.2285L54.2812 43H52.8867ZM50.4551 36.0801L49.2246 39.6543H51.7793L50.5547 36.0801H50.4551ZM55.6113 43V36.6191H56.8242V37.5977H56.918C57.0996 36.9707 57.8086 36.5137 58.6406 36.5137C58.8281 36.5137 59.0684 36.5312 59.2031 36.5664V37.8086C59.0977 37.7734 58.7227 37.7324 58.5 37.7324C57.5449 37.7324 56.8711 38.3359 56.8711 39.2324V43H55.6113ZM61.1895 35.0312H62.4492V36.6484H63.832V37.709H62.4492V40.9902C62.4492 41.6582 62.7246 41.9512 63.3516 41.9512C63.5449 41.9512 63.6562 41.9395 63.832 41.9219V42.9707C63.627 43.0059 63.3926 43.0352 63.1465 43.0352C61.7461 43.0352 61.1895 42.543 61.1895 41.3125V37.709H60.1758V36.6484H61.1895V35.0312Z" fill="#11E799"/>
</svg>
