<svg width="96" height="46" viewBox="0 0 96 46" fill="none" xmlns="http://www.w3.org/2000/svg">
<path d="M52.2547 16.4004V11.7292C52.2547 10.5688 51.3158 9.62005 50.1587 9.60682L49.6265 10.1391C49.6033 10.1622 49.5769 10.1721 49.5505 10.1787C49.5438 10.1787 49.5372 10.1787 49.5306 10.182C49.524 10.182 49.5174 10.1854 49.5075 10.1854C49.4843 10.1854 49.4645 10.182 49.4447 10.1721C49.3819 10.1457 49.3422 10.0862 49.3422 10.0168V9.60352H43.2164C43.1304 9.60352 43.0478 9.61013 42.9651 9.62004C42.9486 9.62004 42.9321 9.62666 42.9156 9.62666C42.8362 9.63657 42.7602 9.6531 42.6808 9.67294C41.7651 9.91096 41.0874 10.7407 41.0874 11.7259V11.7755C41.0874 11.7755 41.0874 11.7821 41.0874 11.7854V16.3376C41.0874 16.3376 41.0874 16.3442 41.0874 16.3475V16.3971C41.0874 17.5674 42.0395 18.5195 43.2131 18.5195H50.1323C51.3026 18.5195 52.2547 17.5674 52.2547 16.3971V16.4004ZM42.8759 12.5656C42.8759 11.8284 43.4742 11.23 44.2115 11.23C44.9487 11.23 45.547 11.8284 45.547 12.5656C45.547 13.3028 44.9487 13.9012 44.2115 13.9012C43.4742 13.9012 42.8759 13.3028 42.8759 12.5656ZM47.881 17.0252H45.4578C44.4693 17.0252 43.666 16.2219 43.666 15.2334C43.666 15.1409 43.742 15.0648 43.8346 15.0648H49.5042C49.5967 15.0648 49.6728 15.1409 49.6728 15.2334C49.6728 16.2219 48.8694 17.0252 47.881 17.0252ZM49.1306 13.9012C48.3934 13.9012 47.795 13.3028 47.795 12.5656C47.795 11.8284 48.3934 11.23 49.1306 11.23C49.8678 11.23 50.4662 11.8284 50.4662 12.5656C50.4662 13.3028 49.8678 13.9012 49.1306 13.9012Z" fill="#11E799"/>
<path d="M44.337 6.14878C44.337 5.53058 43.8345 5.02478 43.213 5.02478C42.5915 5.02478 42.0857 5.52727 42.0857 6.14878C42.0857 6.57524 42.3237 6.96203 42.7105 7.15707C42.7865 7.19674 42.8692 7.22319 42.9551 7.24303C43.2064 7.30253 43.4808 7.27278 43.7155 7.15377C44.099 6.96203 44.337 6.57524 44.337 6.14878Z" fill="#11E799"/>
<path d="M42.8032 9.30583C42.9388 9.28269 43.0743 9.26946 43.2132 9.26946H43.6231V7.55371C43.3619 7.63305 43.071 7.63305 42.8032 7.55371V9.30583Z" fill="#11E799"/>
<path d="M49.1339 13.5605C49.6853 13.5605 50.1322 13.1135 50.1322 12.5621C50.1322 12.0107 49.6853 11.5637 49.1339 11.5637C48.5825 11.5637 48.1355 12.0107 48.1355 12.5621C48.1355 13.1135 48.5825 13.5605 49.1339 13.5605Z" fill="#11E799"/>
<path d="M44.2147 13.5605C44.7661 13.5605 45.2131 13.1135 45.2131 12.5621C45.2131 12.0107 44.7661 11.5637 44.2147 11.5637C43.6633 11.5637 43.2163 12.0107 43.2163 12.5621C43.2163 13.1135 43.6633 13.5605 44.2147 13.5605Z" fill="#11E799"/>
<path d="M45.4613 16.6847H47.8845C48.6316 16.6847 49.2465 16.1194 49.3292 15.3987H44.0166C44.0992 16.1227 44.7174 16.6847 45.4613 16.6847Z" fill="#11E799"/>
<path d="M53.8913 11.9537H52.592V16.1687H53.8913C54.2318 16.1687 54.5524 15.9836 54.7243 15.6894C54.8103 15.5439 54.8533 15.3786 54.8533 15.21V12.9157C54.8533 12.3868 54.4235 11.9537 53.8913 11.9537Z" fill="#11E799"/>
<path d="M38.4956 12.9159V15.2101C38.4956 15.3787 38.5386 15.544 38.6245 15.6895C38.7964 15.987 39.1138 16.1721 39.4576 16.1721H40.7568V11.9572H39.4576C38.9287 11.9572 38.4956 12.3869 38.4956 12.9192V12.9159Z" fill="#11E799"/>
<path d="M53.8777 16.5062V19.2766C53.8777 20.0799 53.2231 20.7345 52.4231 20.7345H48.4692C48.4692 20.7345 48.4725 20.7543 48.4759 20.7642C48.4891 20.8072 48.5023 20.8469 48.5122 20.8898C48.5155 20.9097 48.5221 20.9295 48.5254 20.9526C48.5354 21.0155 48.542 21.0816 48.542 21.1444C48.542 21.2072 48.5354 21.2733 48.5254 21.3361C48.5221 21.356 48.5155 21.3758 48.5122 21.3956C48.5023 21.4386 48.4924 21.4816 48.4759 21.5246C48.4759 21.5345 48.4725 21.5444 48.4692 21.551H52.4231C53.676 21.551 54.6975 20.5295 54.6975 19.2733V16.2186C54.4694 16.4005 54.1851 16.5029 53.8876 16.5029H53.8777V16.5062Z" fill="#11E799"/>
<path d="M46.6743 20.0437C45.828 20.0437 45.1404 20.5396 45.1404 21.1479C45.1404 21.7561 45.828 22.252 46.6743 22.252C47.2661 22.252 47.795 22.014 48.0529 21.6338C48.1553 21.4818 48.2082 21.3198 48.2082 21.1512C48.2082 20.9826 48.1553 20.8206 48.0529 20.6685C47.7917 20.285 47.2661 20.0503 46.6743 20.0503V20.0437Z" fill="#11E799"/>
<path d="M56.6814 1.75195H48.9059C48.453 1.75195 48.0828 2.12221 48.0828 2.57512V6.75705C48.0828 7.20996 48.453 7.58022 48.9059 7.58022H49.5076C49.6002 7.58022 49.6762 7.65625 49.6762 7.74882V9.61333L51.6597 7.62981C51.6928 7.59675 51.7325 7.58022 51.7787 7.58022H56.6814C57.1343 7.58022 57.5045 7.20996 57.5045 6.75705V2.57512C57.5045 2.12221 57.1343 1.75195 56.6814 1.75195ZM55.3954 6.54217H50.1919C49.9836 6.54217 49.7853 6.45291 49.6531 6.29423C49.5175 6.13555 49.458 5.92728 49.4911 5.7157C49.544 5.3785 49.858 5.12064 50.2184 5.12064H55.3954C55.7855 5.12064 56.1061 5.43801 56.1061 5.83141C56.1061 6.22481 55.7888 6.54217 55.3954 6.54217ZM55.3954 4.20492H50.1919C49.9836 4.20492 49.7853 4.11566 49.6531 3.95697C49.5175 3.79829 49.458 3.59002 49.4911 3.37845C49.544 3.04125 49.858 2.78339 50.2184 2.78339H55.3954C55.7855 2.78339 56.1061 3.10075 56.1061 3.49415C56.1061 3.88755 55.7888 4.20492 55.3954 4.20492Z" fill="#11E799"/>
<path d="M55.3986 3.1239H50.2216C50.0232 3.1239 49.8546 3.25614 49.8282 3.43465C49.8117 3.54705 49.8414 3.65615 49.9108 3.7421C49.9803 3.82475 50.0861 3.87434 50.1951 3.87434H55.3986C55.6036 3.87434 55.7722 3.70574 55.7722 3.50077C55.7722 3.29581 55.6036 3.12721 55.3986 3.12721V3.1239Z" fill="#11E799"/>
<path d="M55.3986 5.46118H50.2216C50.0232 5.46118 49.8546 5.59342 49.8282 5.77193C49.8117 5.88433 49.8414 5.99343 49.9108 6.07938C49.9803 6.16203 50.0861 6.21162 50.1951 6.21162H55.3986C55.6036 6.21162 55.7722 6.04302 55.7722 5.83805C55.7722 5.63309 55.6036 5.46449 55.3986 5.46449V5.46118Z" fill="#11E799"/>
<path d="M16.207 43.2051C13.8574 43.2051 12.3926 41.5117 12.3926 38.7754C12.3926 36.0332 13.8516 34.3398 16.2012 34.3398C18.0645 34.3398 19.5059 35.5469 19.7168 37.2695H18.4102C18.1641 36.2324 17.3145 35.5645 16.2012 35.5645C14.6836 35.5645 13.7344 36.8008 13.7344 38.7754C13.7344 40.7441 14.6836 41.9805 16.207 41.9805C17.3262 41.9805 18.1758 41.377 18.4102 40.4219H19.7168C19.4824 42.0918 18.0938 43.2051 16.207 43.2051ZM21.3574 43V34.1289H22.6055V37.6445H22.7051C23.0156 36.9297 23.6895 36.502 24.6504 36.502C26.0098 36.502 26.8477 37.3633 26.8477 38.8809V43H25.5879V39.1914C25.5879 38.1719 25.1133 37.6562 24.2227 37.6562C23.1914 37.6562 22.6172 38.3066 22.6172 39.2734V43H21.3574ZM30.709 42.0449C31.6582 42.0449 32.3613 41.4414 32.3613 40.6504V40.1172L30.8027 40.2168C29.9238 40.2754 29.5254 40.5742 29.5254 41.1367C29.5254 41.7109 30.0234 42.0449 30.709 42.0449ZM30.3867 43.1055C29.1562 43.1055 28.2598 42.3613 28.2598 41.1953C28.2598 40.0469 29.1152 39.3848 30.6328 39.291L32.3613 39.1914V38.6406C32.3613 37.9668 31.916 37.5859 31.0547 37.5859C30.3516 37.5859 29.8652 37.8438 29.7246 38.2949H28.5059C28.6348 37.1992 29.666 36.4961 31.1133 36.4961C32.7129 36.4961 33.6152 37.293 33.6152 38.6406V43H32.4023V42.1035H32.3027C31.9219 42.7422 31.2246 43.1055 30.3867 43.1055ZM35.4082 43V36.6191H36.6211V37.5977H36.7148C36.8965 36.9707 37.6055 36.5137 38.4375 36.5137C38.625 36.5137 38.8652 36.5312 39 36.5664V37.8086C38.8945 37.7734 38.5195 37.7324 38.2969 37.7324C37.3418 37.7324 36.668 38.3359 36.668 39.2324V43H35.4082ZM42.252 42.0449C43.2012 42.0449 43.9043 41.4414 43.9043 40.6504V40.1172L42.3457 40.2168C41.4668 40.2754 41.0684 40.5742 41.0684 41.1367C41.0684 41.7109 41.5664 42.0449 42.252 42.0449ZM41.9297 43.1055C40.6992 43.1055 39.8027 42.3613 39.8027 41.1953C39.8027 40.0469 40.6582 39.3848 42.1758 39.291L43.9043 39.1914V38.6406C43.9043 37.9668 43.459 37.5859 42.5977 37.5859C41.8945 37.5859 41.4082 37.8438 41.2676 38.2949H40.0488C40.1777 37.1992 41.209 36.4961 42.6562 36.4961C44.2559 36.4961 45.1582 37.293 45.1582 38.6406V43H43.9453V42.1035H43.8457C43.4648 42.7422 42.7676 43.1055 41.9297 43.1055ZM52.3535 38.7051H51.1289C50.9824 38.084 50.4668 37.6211 49.623 37.6211C48.5684 37.6211 47.9238 38.4297 47.9238 39.7891C47.9238 41.1719 48.5742 41.998 49.623 41.998C50.4199 41.998 50.9648 41.6348 51.1289 40.9492H52.3535C52.1895 42.2324 51.2051 43.123 49.6289 43.123C47.7715 43.123 46.6348 41.8691 46.6348 39.7891C46.6348 37.7441 47.7656 36.4961 49.623 36.4961C51.2227 36.4961 52.1895 37.4277 52.3535 38.7051ZM54.334 35.0312H55.5938V36.6484H56.9766V37.709H55.5938V40.9902C55.5938 41.6582 55.8691 41.9512 56.4961 41.9512C56.6895 41.9512 56.8008 41.9395 56.9766 41.9219V42.9707C56.7715 43.0059 56.5371 43.0352 56.291 43.0352C54.8906 43.0352 54.334 42.543 54.334 41.3125V37.709H53.3203V36.6484H54.334V35.0312ZM61.0078 37.5684C60.0762 37.5684 59.4258 38.2246 59.3555 39.2207H62.5781C62.5488 38.2188 61.9395 37.5684 61.0078 37.5684ZM62.5723 41.2773H63.7852C63.498 42.4199 62.4785 43.123 61.0195 43.123C59.1914 43.123 58.0723 41.8691 58.0723 39.8301C58.0723 37.791 59.2148 36.4961 61.0137 36.4961C62.7891 36.4961 63.8613 37.709 63.8613 39.7129V40.1523H59.3555V40.2227C59.3965 41.3418 60.0469 42.0508 61.0547 42.0508C61.8164 42.0508 62.3379 41.7754 62.5723 41.2773ZM65.373 43V36.6191H66.5859V37.5977H66.6797C66.8613 36.9707 67.5703 36.5137 68.4023 36.5137C68.5898 36.5137 68.8301 36.5312 68.9648 36.5664V37.8086C68.8594 37.7734 68.4844 37.7324 68.2617 37.7324C67.3066 37.7324 66.6328 38.3359 66.6328 39.2324V43H65.373ZM79.0781 43L78.3047 40.7559H75.082L74.3027 43H72.9551L76.0078 34.5449H77.4199L80.4727 43H79.0781ZM76.6465 36.0801L75.416 39.6543H77.9707L76.7461 36.0801H76.6465ZM83.2617 43H81.9492V34.5449H83.2617V43Z" fill="#11E799"/>
</svg>
