<svg width="96" height="46" viewBox="0 0 96 46" fill="none" xmlns="http://www.w3.org/2000/svg">
<path d="M47.6536 12.5354C47.6536 13.3225 48.2951 13.964 49.0822 13.964C49.8692 13.964 50.5108 13.3225 50.5108 12.5354C50.5108 11.7484 49.8692 11.1068 49.0822 11.1068C48.2951 11.1068 47.6536 11.7484 47.6536 12.5354ZM49.8792 12.5354C49.8792 12.9753 49.522 13.3357 49.0822 13.3357C48.6424 13.3357 48.2819 12.9786 48.2819 12.5354C48.2819 12.0923 48.639 11.7384 49.0822 11.7384C49.5253 11.7384 49.8792 12.0956 49.8792 12.5354Z" fill="#828282"/>
<path d="M45.8182 12.5354C45.8182 11.7484 45.1766 11.1068 44.3896 11.1068C43.6025 11.1068 42.9609 11.7484 42.9609 12.5354C42.9609 13.3225 43.6025 13.964 44.3896 13.964C45.1766 13.964 45.8182 13.3225 45.8182 12.5354ZM43.5926 12.5354C43.5926 12.0956 43.9497 11.7384 44.3896 11.7384C44.8294 11.7384 45.1898 12.0956 45.1898 12.5354C45.1898 12.9753 44.8327 13.3357 44.3896 13.3357C43.9464 13.3357 43.5926 12.9786 43.5926 12.5354Z" fill="#828282"/>
<path d="M49.4391 14.7678H44.0322C43.8569 14.7678 43.718 14.91 43.718 15.082C43.718 16.1105 44.5547 16.9471 45.5832 16.9471H47.8947C48.9232 16.9471 49.7599 16.1105 49.7599 15.082C49.7599 14.9067 49.6177 14.7678 49.4457 14.7678H49.4391ZM47.8914 16.3155H45.5799C45.0077 16.3155 44.5249 15.9253 44.386 15.3961H49.0819C48.9431 15.9253 48.4602 16.3155 47.8881 16.3155H47.8914Z" fill="#828282"/>
<path d="M56.2844 1.74817H48.8668C48.1723 1.74817 47.6068 2.31366 47.6068 3.00813V6.99635C47.6068 7.69082 48.1723 8.25632 48.8668 8.25632H49.1247V9.23849H44.2999V7.69743C44.7231 7.41303 44.9811 6.93683 44.9811 6.41763C44.9811 5.56443 44.2866 4.86996 43.4334 4.86996C42.5802 4.86996 41.8858 5.56443 41.8858 6.41763C41.8858 6.94014 42.1437 7.41303 42.5703 7.70074V9.39722C41.6939 9.72131 41.0458 10.5216 40.9466 11.4806H39.852C39.0847 11.4806 38.4597 12.1056 38.4597 12.8729V15.0621C38.4597 15.3068 38.5259 15.5482 38.6482 15.7566C38.8962 16.1865 39.3592 16.451 39.852 16.451H40.9466C41.0755 17.7077 42.1437 18.6932 43.4367 18.6932H50.0375C51.3305 18.6932 52.3954 17.7077 52.5243 16.451H53.1361V18.9379C53.1361 19.4438 52.726 19.8539 52.2234 19.8539H48.3377C47.9805 19.4438 47.3886 19.1925 46.7371 19.1925C45.6689 19.1925 44.7959 19.8771 44.7959 20.7203C44.7959 21.5636 45.6656 22.2482 46.7371 22.2482C47.3853 22.2482 47.9805 21.9968 48.3377 21.5868H52.2234C53.6818 21.5868 54.869 20.3996 54.869 18.9379V15.6706C54.9616 15.4821 55.0145 15.2737 55.0145 15.0588V12.8696C55.0145 12.1023 54.3895 11.4773 53.6222 11.4773H52.5243C52.4152 10.4323 51.6645 9.57911 50.6724 9.32116L51.7406 8.25301H56.2877C56.9821 8.25301 57.5476 7.68751 57.5476 6.99305V3.00813C57.5476 2.31366 56.9821 1.74817 56.2877 1.74817H56.2844ZM43.4334 5.5016C43.9394 5.5016 44.3495 5.91166 44.3495 6.41763C44.3495 6.76817 44.1543 7.08234 43.8402 7.23776C43.6484 7.33697 43.4235 7.35682 43.2185 7.31052C43.149 7.29398 43.0829 7.27083 43.02 7.24107C42.7059 7.08234 42.5108 6.76817 42.5108 6.41763C42.5108 5.91166 42.9241 5.5016 43.4301 5.5016H43.4334ZM43.1986 9.25172V7.94877C43.1986 7.94877 43.2152 7.94877 43.2218 7.94877C43.2912 7.95869 43.364 7.9653 43.4367 7.9653C43.5095 7.9653 43.5789 7.95869 43.6517 7.94877H43.6748V9.23849H43.44C43.3607 9.23849 43.2813 9.2418 43.2052 9.24841L43.1986 9.25172ZM39.1906 15.4424C39.1244 15.3266 39.088 15.1944 39.088 15.0621V12.8729C39.088 12.4529 39.4287 12.109 39.8487 12.109H40.93V15.8227H39.8487C39.5775 15.8227 39.3261 15.6772 39.1906 15.4424ZM46.7338 21.6198C46.0228 21.6198 45.4242 21.2098 45.4242 20.7236C45.4242 20.2375 46.0228 19.8275 46.7338 19.8275C47.2398 19.8275 47.706 20.0325 47.921 20.35C48.0037 20.469 48.0434 20.5947 48.0434 20.7236C48.0434 20.8526 48.0037 20.9783 47.921 21.0973C47.706 21.4148 47.2398 21.6198 46.7338 21.6198ZM54.234 18.9412C54.234 20.0556 53.3312 20.9584 52.2201 20.9584H48.6518C48.6518 20.9584 48.6518 20.9452 48.6518 20.9386C48.6651 20.8658 48.6717 20.7964 48.6717 20.7236C48.6717 20.6509 48.6651 20.5781 48.6518 20.5087C48.6518 20.5021 48.6518 20.4955 48.6518 20.4889H52.2201C53.07 20.4889 53.7644 19.7944 53.7644 18.9412V16.4444C53.7644 16.4444 53.7744 16.4444 53.781 16.4444C53.8537 16.4345 53.9265 16.4213 53.9992 16.4014C54.0125 16.3981 54.029 16.3915 54.0422 16.3882C54.0984 16.3717 54.1547 16.3485 54.2076 16.3221C54.2175 16.3187 54.2274 16.3154 54.2406 16.3088V18.9412H54.234ZM54.3795 12.8729V15.0621C54.3795 15.1944 54.3432 15.3266 54.277 15.4424C54.1414 15.6772 53.8901 15.8227 53.6189 15.8227H52.5342V12.109H53.6189C54.0389 12.109 54.3795 12.4496 54.3795 12.8696V12.8729ZM50.1201 9.87012C51.1122 9.91642 51.9026 10.7366 51.9026 11.7386V16.1931C51.9026 17.2249 51.0626 18.0648 50.0309 18.0648H43.4301C42.3983 18.0648 41.5551 17.2249 41.5551 16.1931V16.1468C41.5551 16.1468 41.5551 16.1402 41.5551 16.1369V11.7948C41.5551 11.7948 41.5551 11.7882 41.5551 11.7849V11.7386C41.5551 10.8655 42.1569 10.1347 42.9671 9.92965C43.0333 9.91311 43.0994 9.89989 43.1622 9.88997C43.1788 9.88997 43.192 9.88335 43.2085 9.88335C43.2813 9.87343 43.3541 9.87012 43.4301 9.87012H49.1214V10.1082C49.1214 10.2339 49.1975 10.3496 49.3165 10.3992C49.3529 10.4125 49.3893 10.4191 49.4257 10.4224H49.4356C49.4422 10.4224 49.4488 10.4191 49.4554 10.4191C49.4819 10.4191 49.5084 10.4125 49.5348 10.4025L49.5646 10.3926C49.5976 10.3761 49.6307 10.3596 49.6572 10.3298L50.1168 9.87012H50.1201ZM56.9094 6.99635C56.9094 7.34359 56.6283 7.62468 56.2811 7.62468H51.605C51.5223 7.62468 51.4429 7.65775 51.3834 7.71728L49.7531 9.34762V7.94215C49.7531 7.76688 49.6109 7.62799 49.4389 7.62799H48.8668C48.5196 7.62799 48.2385 7.34689 48.2385 6.99966V3.00813C48.2385 2.6609 48.5196 2.3798 48.8668 2.3798H56.2844C56.6316 2.3798 56.9127 2.6609 56.9127 3.00813V6.99635H56.9094Z" fill="#828282"/>
<path d="M55.0579 3.05458H50.1173C49.6973 3.05458 49.3335 3.35551 49.2707 3.75235C49.231 3.99707 49.3005 4.24178 49.4592 4.42698C49.6179 4.61217 49.8494 4.71799 50.0908 4.71799H55.0546C55.5143 4.71799 55.888 4.3443 55.888 3.88463C55.888 3.42496 55.5143 3.05127 55.0546 3.05127L55.0579 3.05458ZM55.0579 4.08966H50.0942C50.0115 4.08966 49.9619 4.04667 49.9387 4.02022C49.9156 3.99376 49.8792 3.93754 49.8924 3.85156C49.9057 3.75896 50.0049 3.68621 50.1173 3.68621H55.0579C55.1704 3.68621 55.2597 3.7755 55.2597 3.88794C55.2597 4.00037 55.1704 4.08966 55.0579 4.08966Z" fill="#828282"/>
<path d="M55.0579 5.28675H50.1173C49.6973 5.28675 49.3335 5.58769 49.2707 5.98453C49.231 6.22925 49.3005 6.47396 49.4592 6.65915C49.6179 6.84434 49.8494 6.95017 50.0908 6.95017H55.0546C55.5143 6.95017 55.888 6.57648 55.888 6.11681C55.888 5.65714 55.5143 5.28345 55.0546 5.28345L55.0579 5.28675ZM55.0579 6.32184H50.0942C50.0115 6.32184 49.9619 6.27885 49.9387 6.25239C49.9156 6.22594 49.8792 6.16972 49.8924 6.08374C49.9057 5.99114 50.0049 5.91839 50.1173 5.91839H55.0579C55.1704 5.91839 55.2597 6.00768 55.2597 6.12011C55.2597 6.23255 55.1704 6.32184 55.0579 6.32184Z" fill="#828282"/>
<path d="M16.207 43.2051C13.8574 43.2051 12.3926 41.5117 12.3926 38.7754C12.3926 36.0332 13.8516 34.3398 16.2012 34.3398C18.0645 34.3398 19.5059 35.5469 19.7168 37.2695H18.4102C18.1641 36.2324 17.3145 35.5645 16.2012 35.5645C14.6836 35.5645 13.7344 36.8008 13.7344 38.7754C13.7344 40.7441 14.6836 41.9805 16.207 41.9805C17.3262 41.9805 18.1758 41.377 18.4102 40.4219H19.7168C19.4824 42.0918 18.0938 43.2051 16.207 43.2051ZM21.3574 43V34.1289H22.6055V37.6445H22.7051C23.0156 36.9297 23.6895 36.502 24.6504 36.502C26.0098 36.502 26.8477 37.3633 26.8477 38.8809V43H25.5879V39.1914C25.5879 38.1719 25.1133 37.6562 24.2227 37.6562C23.1914 37.6562 22.6172 38.3066 22.6172 39.2734V43H21.3574ZM30.709 42.0449C31.6582 42.0449 32.3613 41.4414 32.3613 40.6504V40.1172L30.8027 40.2168C29.9238 40.2754 29.5254 40.5742 29.5254 41.1367C29.5254 41.7109 30.0234 42.0449 30.709 42.0449ZM30.3867 43.1055C29.1562 43.1055 28.2598 42.3613 28.2598 41.1953C28.2598 40.0469 29.1152 39.3848 30.6328 39.291L32.3613 39.1914V38.6406C32.3613 37.9668 31.916 37.5859 31.0547 37.5859C30.3516 37.5859 29.8652 37.8438 29.7246 38.2949H28.5059C28.6348 37.1992 29.666 36.4961 31.1133 36.4961C32.7129 36.4961 33.6152 37.293 33.6152 38.6406V43H32.4023V42.1035H32.3027C31.9219 42.7422 31.2246 43.1055 30.3867 43.1055ZM35.4082 43V36.6191H36.6211V37.5977H36.7148C36.8965 36.9707 37.6055 36.5137 38.4375 36.5137C38.625 36.5137 38.8652 36.5312 39 36.5664V37.8086C38.8945 37.7734 38.5195 37.7324 38.2969 37.7324C37.3418 37.7324 36.668 38.3359 36.668 39.2324V43H35.4082ZM42.252 42.0449C43.2012 42.0449 43.9043 41.4414 43.9043 40.6504V40.1172L42.3457 40.2168C41.4668 40.2754 41.0684 40.5742 41.0684 41.1367C41.0684 41.7109 41.5664 42.0449 42.252 42.0449ZM41.9297 43.1055C40.6992 43.1055 39.8027 42.3613 39.8027 41.1953C39.8027 40.0469 40.6582 39.3848 42.1758 39.291L43.9043 39.1914V38.6406C43.9043 37.9668 43.459 37.5859 42.5977 37.5859C41.8945 37.5859 41.4082 37.8438 41.2676 38.2949H40.0488C40.1777 37.1992 41.209 36.4961 42.6562 36.4961C44.2559 36.4961 45.1582 37.293 45.1582 38.6406V43H43.9453V42.1035H43.8457C43.4648 42.7422 42.7676 43.1055 41.9297 43.1055ZM52.3535 38.7051H51.1289C50.9824 38.084 50.4668 37.6211 49.623 37.6211C48.5684 37.6211 47.9238 38.4297 47.9238 39.7891C47.9238 41.1719 48.5742 41.998 49.623 41.998C50.4199 41.998 50.9648 41.6348 51.1289 40.9492H52.3535C52.1895 42.2324 51.2051 43.123 49.6289 43.123C47.7715 43.123 46.6348 41.8691 46.6348 39.7891C46.6348 37.7441 47.7656 36.4961 49.623 36.4961C51.2227 36.4961 52.1895 37.4277 52.3535 38.7051ZM54.334 35.0312H55.5938V36.6484H56.9766V37.709H55.5938V40.9902C55.5938 41.6582 55.8691 41.9512 56.4961 41.9512C56.6895 41.9512 56.8008 41.9395 56.9766 41.9219V42.9707C56.7715 43.0059 56.5371 43.0352 56.291 43.0352C54.8906 43.0352 54.334 42.543 54.334 41.3125V37.709H53.3203V36.6484H54.334V35.0312ZM61.0078 37.5684C60.0762 37.5684 59.4258 38.2246 59.3555 39.2207H62.5781C62.5488 38.2188 61.9395 37.5684 61.0078 37.5684ZM62.5723 41.2773H63.7852C63.498 42.4199 62.4785 43.123 61.0195 43.123C59.1914 43.123 58.0723 41.8691 58.0723 39.8301C58.0723 37.791 59.2148 36.4961 61.0137 36.4961C62.7891 36.4961 63.8613 37.709 63.8613 39.7129V40.1523H59.3555V40.2227C59.3965 41.3418 60.0469 42.0508 61.0547 42.0508C61.8164 42.0508 62.3379 41.7754 62.5723 41.2773ZM65.373 43V36.6191H66.5859V37.5977H66.6797C66.8613 36.9707 67.5703 36.5137 68.4023 36.5137C68.5898 36.5137 68.8301 36.5312 68.9648 36.5664V37.8086C68.8594 37.7734 68.4844 37.7324 68.2617 37.7324C67.3066 37.7324 66.6328 38.3359 66.6328 39.2324V43H65.373ZM79.0781 43L78.3047 40.7559H75.082L74.3027 43H72.9551L76.0078 34.5449H77.4199L80.4727 43H79.0781ZM76.6465 36.0801L75.416 39.6543H77.9707L76.7461 36.0801H76.6465ZM83.2617 43H81.9492V34.5449H83.2617V43Z" fill="#828282"/>
</svg>
