<svg width="96" height="46" viewBox="0 0 96 46" fill="none" xmlns="http://www.w3.org/2000/svg">
<path d="M53.98 10.79V14.79C53.98 15.05 53.97 15.3 53.94 15.54C53.71 18.24 52.12 19.58 49.19 19.58H48.79C48.54 19.58 48.3 19.7 48.15 19.9L46.95 21.5C46.42 22.21 45.56 22.21 45.03 21.5L43.83 19.9C43.7 19.73 43.41 19.58 43.19 19.58H42.79C39.6 19.58 38 18.79 38 14.79V10.79C38 7.86001 39.35 6.27001 42.04 6.04001C42.28 6.01001 42.53 6 42.79 6H49.19C52.38 6 53.98 7.60001 53.98 10.79Z" stroke="#828282" stroke-width="1.5" stroke-miterlimit="10" stroke-linecap="round" stroke-linejoin="round"/>
<path d="M57.98 6.79001V10.79C57.98 13.73 56.63 15.31 53.94 15.54C53.97 15.3 53.98 15.05 53.98 14.79V10.79C53.98 7.60001 52.38 6 49.19 6H42.79C42.53 6 42.28 6.01001 42.04 6.04001C42.27 3.35001 43.86 2 46.79 2H53.19C56.38 2 57.98 3.60001 57.98 6.79001Z" stroke="#828282" stroke-width="1.5" stroke-miterlimit="10" stroke-linecap="round" stroke-linejoin="round"/>
<path d="M49.4955 13.25H49.5045" stroke="#828282" stroke-width="2" stroke-linecap="round" stroke-linejoin="round"/>
<path d="M45.9955 13.25H46.0045" stroke="#828282" stroke-width="2" stroke-linecap="round" stroke-linejoin="round"/>
<path d="M42.4955 13.25H42.5045" stroke="#828282" stroke-width="2" stroke-linecap="round" stroke-linejoin="round"/>
<path d="M33.6621 43H32.3496V35.7402H29.6895V34.5449H36.3164V35.7402H33.6621V43ZM39.3281 43.123C37.459 43.123 36.3164 41.875 36.3164 39.8066C36.3164 37.75 37.4648 36.4961 39.3281 36.4961C41.1855 36.4961 42.334 37.75 42.334 39.8066C42.334 41.875 41.1914 43.123 39.3281 43.123ZM39.3281 42.0039C40.418 42.0039 41.0391 41.1953 41.0391 39.8066C41.0391 38.4238 40.418 37.6152 39.3281 37.6152C38.2324 37.6152 37.6172 38.4238 37.6172 39.8066C37.6172 41.2012 38.2324 42.0039 39.3281 42.0039ZM47.1621 36.5137C48.7852 36.5137 49.8105 37.7793 49.8105 39.8066C49.8105 41.834 48.7852 43.1055 47.1738 43.1055C46.2656 43.1055 45.5449 42.707 45.2109 42.0332H45.1113V45.1211H43.8516V36.6191H45.0645V37.6738H45.1582C45.5449 36.9473 46.2949 36.5137 47.1621 36.5137ZM46.8047 41.9746C47.877 41.9746 48.5156 41.1602 48.5156 39.8066C48.5156 38.459 47.877 37.6445 46.8105 37.6445C45.75 37.6445 45.0879 38.4766 45.0879 39.8125C45.0879 41.1426 45.75 41.9746 46.8047 41.9746ZM51.3516 43V36.6191H52.6055V43H51.3516ZM51.9785 35.5C51.5098 35.5 51.1641 35.166 51.1641 34.7324C51.1641 34.293 51.5098 33.959 51.9785 33.959C52.4473 33.959 52.793 34.293 52.793 34.7324C52.793 35.166 52.4473 35.5 51.9785 35.5ZM59.8594 38.7051H58.6348C58.4883 38.084 57.9727 37.6211 57.1289 37.6211C56.0742 37.6211 55.4297 38.4297 55.4297 39.7891C55.4297 41.1719 56.0801 41.998 57.1289 41.998C57.9258 41.998 58.4707 41.6348 58.6348 40.9492H59.8594C59.6953 42.2324 58.7109 43.123 57.1348 43.123C55.2773 43.123 54.1406 41.8691 54.1406 39.7891C54.1406 37.7441 55.2715 36.4961 57.1289 36.4961C58.7285 36.4961 59.6953 37.4277 59.8594 38.7051ZM61.1543 38.4238C61.1543 37.293 62.1914 36.4961 63.6328 36.4961C65.0684 36.4961 66.0059 37.1641 66.1289 38.2891H64.9219C64.8047 37.8203 64.3477 37.5215 63.6328 37.5215C62.9297 37.5215 62.3965 37.8555 62.3965 38.3535C62.3965 38.7344 62.7188 38.9746 63.4102 39.1328L64.4707 39.3789C65.6836 39.6602 66.252 40.1816 66.252 41.1191C66.252 42.3203 65.1328 43.123 63.6094 43.123C62.0918 43.123 61.1016 42.4375 60.9902 41.3066H62.25C62.4082 41.7988 62.877 42.1035 63.6387 42.1035C64.4238 42.1035 64.9805 41.752 64.9805 41.2422C64.9805 40.8613 64.6816 40.6152 64.043 40.4629L62.9297 40.2051C61.7168 39.918 61.1543 39.373 61.1543 38.4238Z" fill="#828282"/>
</svg>
